<?xml version="1.0" encoding="UTF-8"?>
<!DOCTYPE svg PUBLIC "-//W3C//DTD SVG 1.1//EN" "http://www.w3.org/Graphics/SVG/1.1/DTD/svg11.dtd">
<!-- Creator: CorelDRAW X7 -->
<svg xmlns="http://www.w3.org/2000/svg" xml:space="preserve" width="112px" height="144px" version="1.1" style="shape-rendering:geometricPrecision; text-rendering:geometricPrecision; image-rendering:optimizeQuality; fill-rule:evenodd; clip-rule:evenodd"
viewBox="0 0 11200 14400"
 xmlns:xlink="http://www.w3.org/1999/xlink">
 <defs>
  <style type="text/css">
   <![CDATA[
    .fil0 {fill:#FFCC33}
    .fil1 {fill:#FEFEFE;fill-rule:nonzero}
   ]]>
  </style>
 </defs>
 <g id="Layer_x0020_1">
  <metadata id="CorelCorpID_0Corel-Layer"/>
  <g id="_369225920">
   <path class="fil0" d="M10850 5345l214 85c79,31 120,95 112,159l0 11 1 0 0 81 0 2099c0,7 -1,13 -2,20l0 61 0 2099 0 4 0 77 0 2100c0,68 -54,126 -131,149l-2668 1043 -2647 1035 -1 0 0 0 -25 10c-31,14 -66,22 -104,22 -39,0 -76,-9 -108,-24l-2669 -1043 -2685 -1049c-71,-28 -113,-85 -113,-143l-1 0 0 -2100 0 -81 0 -2099 0 -80c0,-7 1,-14 2,-21l0 -2079 0 -81 1 -14c-4,-29 3,-59 21,-86 21,-32 53,-55 90,-70l213 -84 0 -96c0,-1444 590,-2757 1541,-3708 951,-952 2264,-1542 3709,-1542l0 0c1444,0 2757,590 3709,1542 951,951 1541,2264 1541,3708l0 95zm-9003 0l7506 0 0 -95c0,-1031 -422,-1970 -1103,-2650 -680,-681 -1619,-1103 -2650,-1103l0 0c-1032,0 -1970,422 -2650,1103 -681,680 -1103,1619 -1103,2650l0 95z"/>
   <path class="fil1" d="M3945 12161c374,187 841,306 1275,347l0 676c0,61 50,111 111,111l538 0c61,0 111,-50 111,-111l0 -693c870,-139 1438,-708 1438,-1575 0,-911 -626,-1274 -1402,-1530 -619,-207 -1096,-242 -1096,-698 0,-341 278,-484 662,-484 399,0 1032,157 1580,499l0 -1118c-338,-182 -772,-300 -1182,-347l0 -683c0,-61 -50,-110 -111,-110l-538 0c-61,0 -111,49 -111,110l0 685c-875,122 -1438,687 -1438,1534 0,897 640,1245 1352,1480 662,214 1146,256 1146,733 0,384 -306,548 -719,548 -406,0 -1061,-156 -1616,-512l0 1138z"/>
  </g>
 </g>
</svg>
