<?xml version="1.0" encoding="UTF-8"?>
<!DOCTYPE svg PUBLIC "-//W3C//DTD SVG 1.1//EN" "http://www.w3.org/Graphics/SVG/1.1/DTD/svg11.dtd">
<!-- Creator: CorelDRAW X7 -->
<svg xmlns="http://www.w3.org/2000/svg" xml:space="preserve" width="198px" height="256px" version="1.1" style="shape-rendering:geometricPrecision; text-rendering:geometricPrecision; image-rendering:optimizeQuality; fill-rule:evenodd; clip-rule:evenodd"
viewBox="0 0 19800 25600"
 xmlns:xlink="http://www.w3.org/1999/xlink">
 <defs>
  <style type="text/css">
   <![CDATA[
    .fil0 {fill:#FFCC33}
    .fil1 {fill:#FEFEFE;fill-rule:nonzero}
   ]]>
  </style>
 </defs>
 <g id="Layer_x0020_1">
  <metadata id="CorelCorpID_0Corel-Layer"/>
  <g id="_369225392">
   <path class="fil0" d="M19234 9502l380 151c139,55 214,170 198,284l1 19 2 0 0 143 0 3732c0,12 -1,24 -3,36l0 108 0 3733 0 5 0 138 0 3733c0,121 -98,224 -234,265l-4743 1855 -4706 1839 -2 1 1 0 -46 18c-54,24 -117,38 -183,38 -71,0 -136,-15 -192,-42l-4745 -1854 -4774 -1866c-127,-50 -201,-150 -201,-254l-2 0 0 -3733 0 -143 0 -3733 0 -143c0,-12 1,-24 3,-36l0 -3697 0 -143 2 -25c-6,-51 6,-104 38,-153 37,-56 94,-99 160,-125l378 -150 0 -169c0,-2568 1050,-4902 2741,-6593 1691,-1691 4025,-2741 6593,-2741l0 0c2568,0 4902,1050 6593,2741 1691,1691 2741,4025 2741,6593l0 168zm-16007 1l13346 0 0 -169c0,-1834 -751,-3502 -1961,-4712 -1210,-1210 -2878,-1961 -4712,-1961l0 0c-1834,0 -3502,751 -4712,1961 -1210,1210 -1961,2878 -1961,4712l0 169z"/>
   <path class="fil1" d="M6958 21621c664,331 1496,543 2266,616l0 1202c0,108 89,197 197,197l958 0c108,0 197,-89 197,-197l0 -1232c1547,-247 2557,-1259 2557,-2800 0,-1620 -1114,-2265 -2493,-2721 -1101,-367 -1948,-430 -1948,-1240 0,-607 493,-860 1176,-860 709,0 1835,278 2809,886l0 -1987c-600,-324 -1373,-533 -2101,-617l0 -1214c0,-108 -89,-197 -197,-197l-958 0c-108,0 -197,89 -197,197l0 1218c-1554,217 -2557,1221 -2557,2726 0,1594 1139,2214 2404,2632 1177,379 2037,455 2037,1303 0,683 -544,974 -1278,974 -721,0 -1885,-278 -2872,-911l0 2025z"/>
  </g>
 </g>
</svg>
