<?xml version="1.0" encoding="UTF-8"?>
<!DOCTYPE svg PUBLIC "-//W3C//DTD SVG 1.1//EN" "http://www.w3.org/Graphics/SVG/1.1/DTD/svg11.dtd">
<!-- Creator: CorelDRAW X7 -->
<svg xmlns="http://www.w3.org/2000/svg" xml:space="preserve" width="37px" height="48px" version="1.1" style="shape-rendering:geometricPrecision; text-rendering:geometricPrecision; image-rendering:optimizeQuality; fill-rule:evenodd; clip-rule:evenodd"
viewBox="0 0 3700 4800"
 xmlns:xlink="http://www.w3.org/1999/xlink">
 <defs>
  <style type="text/css">
   <![CDATA[
    .fil0 {fill:#FFCC33}
    .fil1 {fill:#FEFEFE;fill-rule:nonzero}
   ]]>
  </style>
 </defs>
 <g id="Layer_x0020_1">
  <metadata id="CorelCorpID_0Corel-Layer"/>
  <g id="_193134272">
   <path class="fil0" d="M3600 1782l72 28c26,10 39,32 37,53l0 4 0 0 0 26 0 700c0,3 0,5 0,7l0 20 0 700 0 1 0 26 0 700c0,23 -19,42 -44,50l-890 347 -882 345 0 0 0 0 -9 4c-10,4 -22,7 -34,7 -13,0 -26,-3 -36,-8l-890 -348 -895 -350c-24,-9 -38,-28 -38,-47l0 0 0 -700 0 -27 0 -700 0 -26c0,-3 0,-5 0,-7l0 -694 0 -26 1 -5c-1,-10 1,-20 7,-29 7,-10 18,-18 30,-23l71 -28 0 -32c0,-481 197,-919 514,-1236 317,-317 754,-514 1236,-514l0 0c482,0 919,197 1236,514 317,317 514,754 514,1236l0 32zm-3001 0l2502 0 0 -32c0,-344 -141,-657 -368,-884 -226,-226 -539,-367 -883,-367l0 0c-344,0 -657,141 -883,367 -227,227 -368,540 -368,884l0 32z"/>
   <path class="fil1" d="M1298 4054c125,62 281,102 425,115l0 226c0,20 17,37 37,37l180 0c20,0 37,-17 37,-37l0 -231c290,-47 479,-236 479,-525 0,-304 -209,-425 -467,-510 -207,-69 -366,-81 -366,-233 0,-114 93,-161 221,-161 133,0 344,52 527,166l0 -373c-113,-60 -258,-100 -394,-115l0 -228c0,-20 -17,-37 -37,-37l-180 0c-20,0 -37,17 -37,37l0 228c-291,41 -479,229 -479,512 0,299 213,415 451,493 220,71 382,85 382,244 0,128 -103,183 -240,183 -135,0 -354,-52 -539,-171l0 380z"/>
  </g>
 </g>
</svg>
