<?xml version="1.0" encoding="UTF-8"?>
<!DOCTYPE svg PUBLIC "-//W3C//DTD SVG 1.1//EN" "http://www.w3.org/Graphics/SVG/1.1/DTD/svg11.dtd">
<!-- Creator: CorelDRAW X7 -->
<svg xmlns="http://www.w3.org/2000/svg" xml:space="preserve" width="397px" height="512px" version="1.1" style="shape-rendering:geometricPrecision; text-rendering:geometricPrecision; image-rendering:optimizeQuality; fill-rule:evenodd; clip-rule:evenodd"
viewBox="0 0 39700 51200"
 xmlns:xlink="http://www.w3.org/1999/xlink">
 <defs>
  <style type="text/css">
   <![CDATA[
    .fil0 {fill:#FFCC33}
    .fil1 {fill:#FEFEFE;fill-rule:nonzero}
   ]]>
  </style>
 </defs>
 <g id="Layer_x0020_1">
  <metadata id="CorelCorpID_0Corel-Layer"/>
  <g id="_192820976">
   <path class="fil0" d="M38518 19004l761 302c278,110 426,340 395,568l2 37 3 0 0 287 0 7464c0,24 -2,48 -6,72l0 217 0 7464 0 11 0 276 0 7465c0,242 -194,449 -468,532l-9485 3708 -9412 3679 -3 1 0 1 -90 35c-109,49 -234,77 -368,77 -140,0 -271,-30 -383,-84l-9490 -3709 -9547 -3732c-255,-99 -402,-300 -403,-508l-3 0 0 -7465 0 -287 0 -7464 0 -287c0,-24 2,-48 6,-72l0 -7394 0 -287 3 -49c-12,-103 13,-208 77,-306 73,-112 186,-197 320,-250l755 -299 0 -340c0,-5135 2100,-9803 5482,-13185 3382,-3382 8049,-5482 13185,-5482l1 0c5136,0 9804,2100 13186,5482 3382,3381 5482,8049 5482,13185l0 337zm-32013 2l26690 0 0 -339c0,-3667 -1502,-7003 -3922,-9423 -2419,-2419 -5756,-3921 -9423,-3921l-1 0c-3667,0 -7004,1502 -9423,3921 -2420,2420 -3921,5756 -3921,9423l0 339z"/>
   <path class="fil1" d="M13967 43241c1327,663 2990,1087 4532,1233l0 2403c0,217 177,394 393,394l1916 0c216,0 393,-177 393,-394l0 -2464c3095,-494 5114,-2517 5114,-5600 0,-3239 -2227,-4530 -4985,-5441 -2201,-733 -3897,-860 -3897,-2480 0,-1214 987,-1721 2354,-1721 1416,0 3669,557 5617,1772l0 -3973c-1200,-648 -2745,-1066 -4203,-1233l0 -2429c0,-217 -177,-394 -393,-394l-1916 0c-216,0 -393,177 -393,394l0 2435c-3110,435 -5114,2443 -5114,5453 0,3188 2277,4428 4808,5263 2353,759 4073,911 4073,2607 0,1366 -1088,1948 -2555,1948 -1443,0 -3771,-557 -5744,-1822l0 4049z"/>
  </g>
 </g>
</svg>
