<?xml version="1.0" encoding="UTF-8"?>
<!DOCTYPE svg PUBLIC "-//W3C//DTD SVG 1.1//EN" "http://www.w3.org/Graphics/SVG/1.1/DTD/svg11.dtd">
<!-- Creator: CorelDRAW X7 -->
<svg xmlns="http://www.w3.org/2000/svg" xml:space="preserve" width="512px" height="512px" version="1.1" style="shape-rendering:geometricPrecision; text-rendering:geometricPrecision; image-rendering:optimizeQuality; fill-rule:evenodd; clip-rule:evenodd"
viewBox="0 0 51200 51200"
 xmlns:xlink="http://www.w3.org/1999/xlink">
 <defs>
  <style type="text/css">
   <![CDATA[
    .fil1 {fill:#FEFEFE}
    .fil0 {fill:#FFCC33}
    .fil2 {fill:#FFCC33;fill-rule:nonzero}
   ]]>
  </style>
 </defs>
 <g id="Layer_x0020_1">
  <metadata id="CorelCorpID_0Corel-Layer"/>
  <rect class="fil0" width="51200" height="51200" rx="7822" ry="7822"/>
  <g id="_261238912">
   <path class="fil1" d="M41055 20139l630 250c230,91 353,281 328,470l1 31 2 0 0 238 0 6179c0,20 -1,40 -4,59l0 180 0 6180 0 9 0 229 0 6180c0,201 -161,372 -387,440l-7853 3070 -7793 3046 -2 1 0 1 -75 29c-90,41 -194,64 -304,64 -117,0 -225,-26 -317,-70l-7858 -3071 -7904 -3090c-211,-81 -333,-248 -333,-420l-2 0 0 -6180 0 -238 0 -6180 0 -237c0,-20 1,-40 4,-60l0 -6121 0 -238 3 -41c-10,-85 10,-172 63,-253 61,-93 155,-163 265,-207l626 -248 0 -281c0,-4252 1738,-8116 4538,-10916 2800,-2800 6664,-4539 10917,-4539l0 0c4252,0 8117,1739 10917,4539 2800,2799 4538,6664 4538,10916l0 279zm-26504 2l22098 0 0 -281c0,-3036 -1244,-5798 -3247,-7801 -2003,-2003 -4766,-3247 -7802,-3247l0 0c-3037,0 -5799,1244 -7802,3247 -2003,2003 -3247,4766 -3247,7801l0 281z"/>
   <path class="fil2" d="M20729 40205c1099,550 2476,900 3752,1021l0 1990c0,179 147,326 326,326l1586 0c179,0 326,-147 326,-326l0 -2041c2561,-409 4234,-2083 4234,-4636 0,-2682 -1844,-3750 -4127,-4504 -1823,-608 -3227,-713 -3227,-2053 0,-1006 817,-1425 1949,-1425 1173,0 3037,461 4650,1466l0 -3289c-994,-536 -2273,-882 -3479,-1021l0 -2011c0,-179 -147,-326 -326,-326l-1586 0c-179,0 -326,147 -326,326l0 2017c-2574,359 -4234,2022 -4234,4514 0,2640 1886,3666 3981,4358 1948,628 3372,754 3372,2157 0,1132 -900,1614 -2115,1614 -1194,0 -3122,-461 -4756,-1509l0 3352z"/>
  </g>
 </g>
</svg>
