<?xml version="1.0" encoding="UTF-8"?>
<!DOCTYPE svg PUBLIC "-//W3C//DTD SVG 1.1//EN" "http://www.w3.org/Graphics/SVG/1.1/DTD/svg11.dtd">
<!-- Creator: CorelDRAW X7 -->
<svg xmlns="http://www.w3.org/2000/svg" xml:space="preserve" width="512px" height="163px" version="1.1" style="shape-rendering:geometricPrecision; text-rendering:geometricPrecision; image-rendering:optimizeQuality; fill-rule:evenodd; clip-rule:evenodd"
viewBox="0 0 51200 16300"
 xmlns:xlink="http://www.w3.org/1999/xlink">
 <defs>
  <style type="text/css">
   <![CDATA[
    .fil0 {fill:#FFCC33}
    .fil2 {fill:#FEFEFE;fill-rule:nonzero}
    .fil1 {fill:#FFCC33;fill-rule:nonzero}
   ]]>
  </style>
 </defs>
 <g id="Layer_x0020_1">
  <metadata id="CorelCorpID_0Corel-Layer"/>
  <g id="_263062432">
   <path class="fil0" d="M12226 6055l241 96c88,35 136,108 126,180l0 12 1 0 0 91 0 2371c0,8 0,15 -2,23l0 69 0 2370 0 4 0 87 0 2371c0,77 -61,142 -148,169l-3012 1177 -2989 1169 -1 0 0 0 -29 11c-35,16 -74,25 -117,25 -45,0 -86,-10 -122,-27l-3013 -1178 -3032 -1185c-81,-31 -128,-95 -128,-161l-1 0 0 -2371 0 -91 0 -2370 0 -91c0,-8 0,-16 2,-23l0 -2349 0 -91 1 -15c-4,-33 4,-66 24,-98 23,-35 59,-62 102,-79l240 -95 0 -108c0,-1631 666,-3113 1740,-4187 1074,-1074 2557,-1741 4188,-1741l0 0c1631,0 3114,667 4188,1741 1074,1074 1741,2556 1741,4187l0 107zm-10167 1l8476 0 0 -108c0,-1164 -477,-2224 -1245,-2992 -769,-769 -1828,-1246 -2993,-1246l0 0c-1165,0 -2224,477 -2993,1246 -768,768 -1245,1828 -1245,2992l0 108z"/>
   <g>
    <path class="fil1" d="M15918 7672c157,-25 339,-45 545,-59 206,-15 464,-23 773,-23 270,0 525,23 766,67 240,44 450,119 629,224 179,106 320,247 423,424 104,176 155,397 155,662 0,157 -23,303 -70,438 -47,135 -109,253 -188,354 -78,100 -167,184 -265,250 -98,66 -199,107 -302,122 113,14 238,49 376,103 137,54 265,133 383,239 118,105 216,242 294,409 79,166 118,368 118,603 0,319 -60,581 -180,784 -121,204 -283,365 -486,482 -204,118 -440,199 -707,243 -268,45 -549,67 -843,67 -226,0 -449,-6 -670,-19 -221,-12 -471,-35 -751,-70l0 -5300zm1068 4491c68,9 148,17 239,22 91,4 173,7 247,7 103,0 211,-10 323,-29 113,-20 219,-58 317,-115 98,-56 179,-135 243,-235 64,-101 96,-232 96,-394 0,-152 -25,-279 -74,-379 -49,-101 -119,-182 -210,-243 -91,-62 -198,-105 -324,-129 -125,-25 -264,-37 -416,-37l-441 0 0 1532zm323 -2342c123,0 237,-11 343,-33 105,-22 197,-61 276,-118 78,-56 140,-132 184,-228 44,-95 66,-217 66,-364 0,-143 -26,-259 -77,-350 -52,-91 -118,-162 -199,-214 -81,-51 -172,-85 -272,-103 -101,-17 -200,-25 -298,-25 -138,0 -253,7 -346,22l0 1413 323 0z"/>
    <path class="fil1" d="M22326 11227c-59,-9 -123,-18 -192,-25 -69,-8 -130,-11 -184,-11 -240,0 -430,43 -570,128 -140,86 -210,225 -210,416 0,128 27,226 81,295 54,69 119,119 195,151 76,32 157,51 243,59 86,7 161,11 224,11 74,0 148,-6 221,-19 74,-12 138,-23 192,-33l0 -972zm0 -758c0,-118 -20,-213 -59,-287 -40,-74 -94,-131 -162,-173 -69,-42 -154,-70 -254,-85 -101,-14 -213,-22 -335,-22 -265,0 -547,52 -847,155 -69,-128 -120,-248 -154,-361 -35,-113 -52,-248 -52,-405 216,-73 432,-127 648,-162 216,-34 417,-51 604,-51 510,0 909,122 1196,368 287,245 431,638 431,1178l0 2208c-172,54 -381,106 -626,155 -246,49 -523,74 -832,74 -251,0 -480,-22 -689,-67 -208,-44 -387,-117 -537,-220 -150,-103 -265,-236 -346,-398 -81,-162 -121,-361 -121,-596 0,-236 50,-433 150,-593 101,-159 231,-287 391,-383 159,-96 337,-164 533,-206 197,-42 393,-63 589,-63 143,0 300,8 472,23l0 -89z"/>
    <path class="fil1" d="M24147 9166c69,-15 137,-26 206,-33 69,-7 145,-11 228,-11 84,0 157,4 221,11 64,7 130,18 199,33 14,25 28,60 40,107 13,47 24,96 33,147 10,52 19,102 26,151 7,49 14,91 19,125 49,-73 108,-147 176,-221 69,-73 149,-140 239,-198 91,-59 193,-107 306,-144 113,-37 238,-55 375,-55 432,0 758,118 976,353 218,236 328,606 328,1112l0 2429c-177,30 -351,44 -523,44 -172,0 -346,-14 -523,-44l0 -2149c0,-265 -40,-469 -121,-612 -81,-142 -222,-213 -424,-213 -83,0 -169,12 -257,37 -89,24 -168,72 -240,143 -71,72 -128,171 -173,299 -44,127 -66,294 -66,500l0 1995c-177,30 -351,44 -523,44 -171,0 -346,-14 -522,-44l0 -3806z"/>
    <path class="fil1" d="M28324 7590c167,-29 338,-44 515,-44 177,0 351,15 523,44l0 5382c-172,30 -346,44 -523,44 -177,0 -348,-14 -515,-44l0 -5382zm1185 3387l943 -1811c191,-29 385,-44 581,-44 187,0 368,15 545,44l-972 1760 1134 2046c-201,30 -395,44 -582,44 -171,0 -353,-14 -545,-44l-1104 -1995z"/>
    <path class="fil1" d="M33035 11390c19,294 123,508 309,640 187,133 432,199 736,199 167,0 338,-16 512,-48 174,-32 340,-77 497,-136 54,98 101,216 140,353 39,137 61,285 66,442 -383,147 -815,221 -1296,221 -353,0 -656,-49 -909,-147 -253,-99 -459,-235 -618,-409 -160,-174 -278,-382 -354,-622 -76,-241 -114,-503 -114,-788 0,-280 39,-542 118,-788 78,-245 195,-459 350,-640 154,-182 346,-325 574,-431 228,-105 494,-158 799,-158 265,0 500,46 706,140 207,93 382,220 527,383 145,161 254,354 327,577 74,224 111,463 111,718 0,93 -4,185 -11,276 -8,91 -16,164 -26,218l-2444 0zm1494 -729c-9,-236 -74,-426 -195,-571 -120,-145 -288,-217 -504,-217 -245,0 -432,68 -560,206 -127,137 -203,331 -228,582l1487 0z"/>
    <path class="fil1" d="M37151 11390c20,294 123,508 309,640 187,133 432,199 737,199 167,0 337,-16 511,-48 174,-32 340,-77 497,-136 54,98 101,216 140,353 39,137 61,285 66,442 -383,147 -814,221 -1295,221 -354,0 -657,-49 -910,-147 -252,-99 -459,-235 -618,-409 -160,-174 -277,-382 -353,-622 -77,-241 -115,-503 -115,-788 0,-280 40,-542 118,-788 79,-245 195,-459 350,-640 155,-182 346,-325 574,-431 229,-105 495,-158 799,-158 265,0 501,46 707,140 206,93 381,220 526,383 145,161 254,354 328,577 74,224 110,463 110,718 0,93 -3,185 -11,276 -7,91 -16,164 -25,218l-2445 0zm1495 -729c-10,-236 -75,-426 -195,-571 -121,-145 -289,-217 -505,-217 -245,0 -432,68 -559,206 -128,137 -204,331 -228,582l1487 0z"/>
    <path class="fil1" d="M40406 9159c69,-15 137,-25 203,-30 66,-5 141,-7 224,-7 138,0 278,15 420,44 15,25 28,60 41,107 12,47 24,97 36,151 13,54 23,106 30,158 7,52 13,94 18,129 44,-79 99,-156 162,-232 64,-76 141,-144 232,-202 91,-59 193,-107 306,-144 113,-37 238,-55 375,-55 211,0 409,39 593,118 184,78 345,197 482,357 137,159 244,359 320,600 76,240 114,525 114,854 0,319 -46,605 -139,857 -94,253 -229,468 -405,645 -177,176 -393,312 -648,408 -255,96 -545,144 -869,144 -83,0 -166,-4 -247,-11 -81,-8 -148,-16 -202,-26l0 1693c-93,15 -183,25 -269,30 -86,5 -170,7 -254,7 -83,0 -168,-2 -254,-7 -86,-5 -175,-15 -269,-30l0 -5558zm1046 3004c132,39 285,58 456,58 305,0 538,-98 700,-294 162,-196 243,-493 243,-891 0,-152 -13,-293 -37,-423 -25,-130 -66,-242 -125,-335 -59,-94 -134,-167 -225,-221 -91,-54 -202,-81 -335,-81 -122,0 -227,23 -313,70 -86,46 -156,110 -210,191 -53,81 -93,176 -117,284 -25,108 -37,223 -37,346l0 1296z"/>
    <path class="fil1" d="M45644 11390c20,294 123,508 310,640 186,133 432,199 736,199 167,0 337,-16 512,-48 174,-32 340,-77 496,-136 55,98 101,216 140,353 40,137 62,285 67,442 -383,147 -815,221 -1296,221 -353,0 -657,-49 -909,-147 -253,-99 -459,-235 -619,-409 -159,-174 -277,-382 -353,-622 -76,-241 -114,-503 -114,-788 0,-280 39,-542 118,-788 78,-245 195,-459 349,-640 155,-182 346,-325 575,-431 228,-105 494,-158 798,-158 265,0 501,46 707,140 206,93 382,220 527,383 144,161 253,354 327,577 74,224 111,463 111,718 0,93 -4,185 -12,276 -7,91 -15,164 -25,218l-2445 0zm1495 -729c-10,-236 -75,-426 -195,-571 -120,-145 -288,-217 -504,-217 -246,0 -432,68 -560,206 -127,137 -204,331 -228,582l1487 0z"/>
    <path class="fil1" d="M48903 9166c74,-15 144,-26 210,-33 66,-7 138,-11 217,-11 74,0 146,5 217,15 71,9 141,22 210,36 15,25 28,61 41,107 12,47 23,96 33,147 9,52 18,103 25,155 8,52 14,94 19,129 108,-152 240,-288 397,-409 157,-120 354,-180 589,-180 49,0 106,2 170,7 63,5 110,13 139,22 10,49 18,106 23,170 5,63 7,130 7,198 0,84 -4,175 -11,273 -7,98 -21,191 -41,280 -54,-10 -114,-15 -180,-15 -66,0 -107,0 -121,0 -84,0 -177,9 -280,26 -103,17 -201,62 -295,136 -93,74 -170,184 -231,331 -62,147 -93,354 -93,619l0 1811c-88,14 -176,24 -265,29 -88,5 -174,7 -257,7 -84,0 -168,-2 -254,-7 -86,-5 -176,-15 -269,-29l0 -3814z"/>
   </g>
   <path class="fil2" d="M4429 13752c421,211 949,346 1439,392l0 763c0,69 56,125 125,125l608 0c69,0 125,-56 125,-125l0 -783c983,-156 1624,-799 1624,-1778 0,-1029 -707,-1438 -1583,-1728 -699,-233 -1237,-273 -1237,-787 0,-386 313,-547 747,-547 450,0 1165,177 1784,563l0 -1262c-381,-206 -872,-339 -1335,-392l0 -771c0,-69 -56,-125 -125,-125l-608 0c-69,0 -125,56 -125,125l0 773c-988,138 -1624,776 -1624,1732 0,1013 723,1406 1527,1672 747,241 1293,289 1293,827 0,434 -345,619 -811,619 -458,0 -1198,-177 -1824,-578l0 1285z"/>
  </g>
 </g>
</svg>
