<?xml version="1.0" encoding="UTF-8"?>
<!DOCTYPE svg PUBLIC "-//W3C//DTD SVG 1.1//EN" "http://www.w3.org/Graphics/SVG/1.1/DTD/svg11.dtd">
<!-- Creator: CorelDRAW X7 -->
<svg xmlns="http://www.w3.org/2000/svg" xml:space="preserve" width="256px" height="256px" version="1.1" style="shape-rendering:geometricPrecision; text-rendering:geometricPrecision; image-rendering:optimizeQuality; fill-rule:evenodd; clip-rule:evenodd"
viewBox="0 0 25600 25600"
 xmlns:xlink="http://www.w3.org/1999/xlink">
 <defs>
  <style type="text/css">
   <![CDATA[
    .fil1 {fill:#FEFEFE}
    .fil0 {fill:#FFCC33}
    .fil2 {fill:#FFCC33;fill-rule:nonzero}
   ]]>
  </style>
 </defs>
 <g id="Layer_x0020_1">
  <metadata id="CorelCorpID_0Corel-Layer"/>
  <g id="_369224960">
   <rect class="fil0" width="25600" height="25600" rx="3911" ry="3911"/>
   <g>
    <path class="fil1" d="M20528 10070l315 125c115,45 176,140 163,235l1 15 1 0 0 119 0 3090c0,10 0,20 -2,29l0 90 0 3090 0 5 0 114 0 3090c0,100 -80,186 -194,220l-3926 1535 -3896 1523 -2 0 0 1 -37 14c-45,21 -97,32 -152,32 -58,0 -113,-12 -159,-34l-3928 -1536 -3952 -1545c-106,-41 -167,-124 -167,-210l-1 0 0 -3090 0 -119 0 -3090 0 -118c0,-11 0,-21 2,-30l0 -3061 0 -119 1 -20c-4,-43 6,-87 32,-127 31,-46 77,-82 133,-103l312 -124 0 -141c0,-2126 870,-4058 2269,-5458 1400,-1400 3333,-2269 5459,-2269l0 0c2126,0 4058,869 5458,2269 1400,1400 2270,3332 2270,5458l0 140zm-13252 1l11048 0 0 -141c0,-1518 -622,-2899 -1623,-3901 -1002,-1001 -2383,-1623 -3901,-1623l0 0c-1518,0 -2900,622 -3901,1623 -1002,1002 -1623,2383 -1623,3901l0 141z"/>
    <path class="fil2" d="M10365 20103c549,274 1238,450 1876,510l0 995c0,90 73,163 163,163l792 0c90,0 163,-73 163,-163l0 -1020c1281,-205 2117,-1042 2117,-2318 0,-1341 -922,-1876 -2063,-2253 -911,-303 -1613,-356 -1613,-1026 0,-503 408,-713 974,-713 586,0 1519,231 2325,734l0 -1645c-497,-268 -1136,-441 -1740,-510l0 -1006c0,-89 -73,-163 -163,-163l-792 0c-90,0 -163,74 -163,163l0 1008c-1288,180 -2117,1011 -2117,2258 0,1319 942,1833 1990,2178 974,315 1686,377 1686,1079 0,566 -450,807 -1058,807 -597,0 -1560,-231 -2377,-754l0 1676z"/>
   </g>
  </g>
 </g>
</svg>
