<?xml version="1.0" encoding="UTF-8"?>
<!DOCTYPE svg PUBLIC "-//W3C//DTD SVG 1.1//EN" "http://www.w3.org/Graphics/SVG/1.1/DTD/svg11.dtd">
<!-- Creator: CorelDRAW X7 -->
<svg xmlns="http://www.w3.org/2000/svg" xml:space="preserve" width="1024px" height="325px" version="1.1" style="shape-rendering:geometricPrecision; text-rendering:geometricPrecision; image-rendering:optimizeQuality; fill-rule:evenodd; clip-rule:evenodd"
viewBox="0 0 102400 32500"
 xmlns:xlink="http://www.w3.org/1999/xlink">
 <defs>
  <style type="text/css">
   <![CDATA[
    .fil0 {fill:#FFCC33}
    .fil2 {fill:#FEFEFE;fill-rule:nonzero}
    .fil1 {fill:#FFCC33;fill-rule:nonzero}
   ]]>
  </style>
 </defs>
 <g id="Layer_x0020_1">
  <metadata id="CorelCorpID_0Corel-Layer"/>
  <path class="fil0" d="M24451 12061l483 192c177,69 271,215 251,360l2 24 1 0 0 182 0 4741c0,15 -1,30 -3,45l0 138 0 4741 0 7 0 176 0 4741c0,154 -124,285 -297,337l-6025 2356 -5978 2336 -2 1 0 1 -57 22c-69,31 -149,49 -234,49 -89,0 -172,-20 -243,-53l-6028 -2356 -6063 -2371c-162,-63 -256,-190 -256,-322l-2 0 0 -4741 0 -183 0 -4741 0 -182c0,-15 1,-31 3,-46l0 -4696 0 -182 3 -32c-8,-65 8,-132 48,-194 47,-71 119,-125 204,-158l479 -191 0 -215c0,-3262 1334,-6227 3482,-8375 2148,-2148 5113,-3482 8375,-3482l0 0c3262,0 6227,1334 8375,3482 2148,2148 3482,5112 3482,8375l0 214zm-20333 1l16952 0 0 -215c0,-2330 -954,-4449 -2491,-5985 -1536,-1537 -3656,-2491 -5985,-2491l0 0c-2330,0 -4449,954 -5985,2491 -1537,1536 -2491,3656 -2491,5985l0 215z"/>
  <g id="_461462664">
   <path class="fil1" d="M31836 15293c314,-49 678,-88 1090,-118 412,-29 927,-44 1546,-44 540,0 1050,44 1531,133 481,88 901,238 1259,449 358,211 641,493 847,846 206,354 309,796 309,1326 0,314 -47,606 -140,876 -93,270 -218,505 -375,707 -157,201 -334,368 -530,500 -197,133 -398,214 -604,243 226,30 476,98 751,206 275,108 530,268 765,479 236,211 432,483 589,817 157,334 236,736 236,1207 0,638 -120,1161 -361,1568 -240,408 -564,729 -972,965 -407,236 -878,397 -1413,486 -535,88 -1097,132 -1686,132 -452,0 -898,-12 -1340,-37 -442,-24 -942,-71 -1502,-139l0 -10602zm2135 8982c138,20 297,34 479,44 181,10 346,15 493,15 206,0 422,-20 648,-59 226,-39 437,-115 633,-228 196,-113 358,-270 486,-471 128,-202 191,-464 191,-788 0,-305 -49,-557 -147,-758 -98,-202 -238,-364 -419,-486 -182,-123 -398,-209 -648,-258 -251,-49 -528,-74 -832,-74l-884 0 0 3063zm648 -4682c245,0 474,-22 685,-67 211,-44 395,-122 552,-235 157,-113 280,-265 368,-457 88,-191 133,-434 133,-729 0,-284 -52,-517 -155,-699 -103,-182 -236,-324 -398,-427 -162,-103 -343,-172 -544,-206 -202,-35 -400,-52 -597,-52 -275,0 -505,15 -692,45l0 2827 648 0z"/>
   <path class="fil1" d="M44651 22405c-118,-20 -245,-37 -383,-51 -137,-15 -260,-23 -368,-23 -481,0 -861,86 -1141,258 -280,172 -420,449 -420,832 0,255 55,451 162,589 108,137 238,238 391,302 152,64 314,103 486,118 171,14 321,22 449,22 147,0 294,-13 441,-37 148,-25 275,-47 383,-66l0 -1944zm0 -1517c0,-235 -39,-427 -118,-574 -78,-147 -186,-263 -323,-346 -138,-83 -307,-140 -508,-169 -202,-30 -425,-44 -671,-44 -530,0 -1094,103 -1693,309 -137,-255 -240,-496 -309,-722 -69,-225 -103,-495 -103,-810 432,-147 864,-255 1296,-323 432,-69 834,-104 1207,-104 1021,0 1819,246 2393,737 574,491 861,1276 861,2356l0 4417c-343,108 -761,211 -1251,309 -491,98 -1046,147 -1664,147 -501,0 -960,-44 -1377,-132 -417,-89 -776,-236 -1075,-442 -299,-206 -530,-471 -692,-795 -162,-324 -243,-722 -243,-1193 0,-471 101,-866 302,-1185 201,-319 461,-574 780,-766 319,-191 675,-328 1068,-412 393,-83 785,-125 1178,-125 284,0 599,15 942,44l0 -177z"/>
   <path class="fil1" d="M48294 18282c137,-29 274,-51 412,-66 137,-15 289,-22 456,-22 167,0 314,7 442,22 128,15 260,37 398,66 29,49 56,121 81,214 24,93 46,191 66,294 19,103 37,204 51,302 15,98 27,182 37,250 98,-147 216,-294 354,-441 137,-148 296,-280 478,-398 182,-118 385,-213 611,-287 226,-74 476,-111 751,-111 864,0 1514,236 1951,707 437,472 655,1213 655,2224l0 4859c-353,59 -702,88 -1045,88 -344,0 -692,-29 -1046,-88l0 -4300c0,-530 -81,-937 -243,-1222 -162,-285 -444,-427 -846,-427 -167,0 -339,25 -516,74 -176,49 -336,144 -478,287 -142,142 -258,341 -346,596 -88,255 -133,589 -133,1001l0 3991c-353,59 -701,88 -1045,88 -344,0 -692,-29 -1045,-88l0 -7613z"/>
   <path class="fil1" d="M56648 15131c334,-59 677,-88 1030,-88 354,0 702,29 1046,88l0 10764c-344,59 -692,88 -1046,88 -353,0 -696,-29 -1030,-88l0 -10764zm2370 6773l1885 -3622c383,-59 771,-88 1163,-88 373,0 736,29 1090,88l-1944 3519 2268 4094c-403,59 -790,88 -1164,88 -343,0 -706,-29 -1089,-88l-2209 -3991z"/>
   <path class="fil1" d="M66070 22729c39,589 245,1016 618,1281 373,265 864,398 1473,398 333,0 674,-32 1023,-96 348,-64 680,-155 994,-273 108,197 201,432 280,707 78,275 122,570 132,884 -766,294 -1630,441 -2592,441 -706,0 -1312,-98 -1818,-294 -505,-196 -918,-469 -1237,-817 -319,-349 -554,-764 -707,-1245 -152,-481 -228,-1006 -228,-1575 0,-559 79,-1085 236,-1575 157,-491 390,-918 699,-1281 309,-364 692,-651 1149,-862 456,-211 989,-317 1597,-317 530,0 1002,94 1414,280 412,187 763,442 1053,766 289,324 508,709 655,1156 147,446 221,925 221,1435 0,187 -8,371 -22,553 -15,181 -32,326 -52,434l-4888 0zm2989 -1458c-20,-471 -150,-851 -390,-1141 -241,-289 -577,-434 -1009,-434 -491,0 -864,137 -1119,412 -255,275 -408,663 -457,1163l2975 0z"/>
   <path class="fil1" d="M74302 22729c40,589 246,1016 619,1281 373,265 864,398 1472,398 334,0 675,-32 1023,-96 349,-64 680,-155 994,-273 108,197 202,432 280,707 79,275 123,570 133,884 -766,294 -1630,441 -2592,441 -707,0 -1313,-98 -1818,-294 -506,-196 -918,-469 -1237,-817 -319,-349 -555,-764 -707,-1245 -152,-481 -228,-1006 -228,-1575 0,-559 78,-1085 235,-1575 157,-491 391,-918 700,-1281 309,-364 692,-651 1148,-862 457,-211 989,-317 1598,-317 530,0 1001,94 1413,280 413,187 764,442 1053,766 290,324 508,709 656,1156 147,446 220,925 220,1435 0,187 -7,371 -22,553 -14,181 -32,326 -51,434l-4889 0zm2989 -1458c-19,-471 -149,-851 -390,-1141 -240,-289 -576,-434 -1009,-434 -490,0 -863,137 -1119,412 -255,275 -407,663 -456,1163l2974 0z"/>
   <path class="fil1" d="M80813 18267c137,-29 272,-49 405,-58 132,-10 282,-15 449,-15 275,0 554,29 839,88 30,49 57,121 81,214 25,93 49,194 74,302 24,107 44,213 59,316 15,103 27,189 37,258 88,-157 196,-312 323,-464 128,-152 283,-287 464,-405 182,-118 386,-213 611,-287 226,-74 476,-111 751,-111 422,0 818,79 1186,236 368,157 689,395 964,714 275,319 488,719 641,1200 152,481 228,1051 228,1708 0,638 -93,1210 -280,1716 -186,505 -456,935 -810,1288 -353,353 -785,626 -1295,817 -511,192 -1090,287 -1738,287 -167,0 -331,-7 -493,-22 -162,-15 -297,-32 -405,-51l0 3386c-187,30 -366,49 -538,59 -171,10 -341,15 -508,15 -167,0 -336,-5 -508,-15 -171,-10 -351,-29 -537,-59l0 -11117zm2091 6008c265,79 569,118 913,118 608,0 1075,-197 1399,-589 324,-393 485,-987 485,-1782 0,-304 -24,-586 -73,-846 -49,-261 -133,-484 -251,-670 -117,-187 -267,-334 -449,-442 -181,-108 -404,-162 -670,-162 -245,0 -454,47 -625,140 -172,93 -312,221 -420,383 -108,162 -187,350 -236,567 -49,215 -73,446 -73,692l0 2591z"/>
   <path class="fil1" d="M91289 22729c39,589 245,1016 618,1281 373,265 864,398 1473,398 334,0 675,-32 1023,-96 349,-64 680,-155 994,-273 108,197 201,432 280,707 78,275 122,570 132,884 -765,294 -1629,441 -2591,441 -707,0 -1313,-98 -1819,-294 -505,-196 -918,-469 -1237,-817 -318,-349 -554,-764 -706,-1245 -152,-481 -228,-1006 -228,-1575 0,-559 78,-1085 235,-1575 157,-491 390,-918 699,-1281 310,-364 692,-651 1149,-862 456,-211 989,-317 1598,-317 530,0 1001,94 1413,280 412,187 763,442 1053,766 290,324 508,709 655,1156 147,446 221,925 221,1435 0,187 -7,371 -22,553 -15,181 -32,326 -52,434l-4888 0zm2989 -1458c-20,-471 -150,-851 -390,-1141 -241,-289 -577,-434 -1009,-434 -491,0 -864,137 -1119,412 -255,275 -407,663 -456,1163l2974 0z"/>
   <path class="fil1" d="M97806 18282c147,-29 287,-51 420,-66 132,-15 277,-22 434,-22 147,0 292,10 434,29 143,20 282,44 420,74 29,49 56,120 81,213 24,94 47,192 66,295 20,103 37,206 52,309 15,103 27,189 37,258 216,-305 481,-577 795,-817 314,-241 706,-361 1178,-361 98,0 211,5 338,15 128,9 221,24 280,44 20,98 34,211 44,338 10,128 15,260 15,398 0,167 -8,348 -22,545 -15,196 -42,383 -81,559 -108,-19 -228,-29 -361,-29 -132,0 -213,0 -243,0 -167,0 -353,17 -559,51 -207,35 -403,126 -589,273 -187,147 -341,368 -464,662 -123,295 -184,707 -184,1237l0 3623c-177,29 -354,49 -530,58 -177,10 -349,15 -516,15 -167,0 -336,-5 -508,-15 -171,-9 -351,-29 -537,-58l0 -7628z"/>
  </g>
  <path class="fil2" d="M8857 27461c843,422 1900,691 2879,784l0 1526c0,137 112,250 250,250l1216 0c138,0 250,-113 250,-250l0 -1565c1966,-314 3248,-1599 3248,-3557 0,-2058 -1414,-2877 -3166,-3456 -1398,-466 -2475,-546 -2475,-1575 0,-771 627,-1093 1495,-1093 900,0 2330,354 3568,1125l0 -2523c-763,-412 -1744,-677 -2670,-783l0 -1543c0,-138 -112,-250 -250,-250l-1216 0c-138,0 -250,112 -250,250l0 1547c-1975,276 -3248,1551 -3248,3463 0,2025 1446,2813 3053,3343 1495,482 2588,579 2588,1655 0,868 -691,1238 -1623,1238 -917,0 -2395,-354 -3649,-1157l0 2571z"/>
 </g>
</svg>
